<svg width="21" height="21" viewBox="0 0 21 21" fill="none" xmlns="http://www.w3.org/2000/svg">
<path d="M10.125 19.5C11.9792 19.5 13.7918 18.9502 15.3335 17.92C16.8752 16.8899 18.0768 15.4257 18.7864 13.7127C19.4959 11.9996 19.6816 10.1146 19.3199 8.29603C18.9581 6.47746 18.0652 4.807 16.7541 3.49588C15.443 2.18476 13.7725 1.29188 11.954 0.930142C10.1354 0.568406 8.2504 0.754062 6.53734 1.46363C4.82429 2.17321 3.36011 3.37482 2.32997 4.91653C1.29983 6.45824 0.75 8.2708 0.75 10.125C0.75 11.675 1.125 13.1354 1.79167 14.424L0.75 19.5L5.82604 18.4583C7.11354 19.124 8.57604 19.5 10.125 19.5Z" stroke="black" stroke-opacity="0.35" stroke-width="1.5" stroke-linecap="round" stroke-linejoin="round"/>
</svg>
